<svg id="svg" version="1.1" xmlns="http://www.w3.org/2000/svg" xmlns:xlink="http://www.w3.org/1999/xlink" width="400" height="402.60869565217394" viewBox="0, 0, 400,402.60869565217394"><g id="svgg"><path id="path0" d="M0.000 201.304 L 0.000 402.609 200.000 402.609 L 400.000 402.609 400.000 201.304 L 400.000 0.000 200.000 0.000 L 0.000 0.000 0.000 201.304 M332.455 47.573 C 340.883 49.040,347.811 55.245,350.213 63.478 L 350.696 65.130 350.745 199.652 C 350.780 296.083,350.740 334.494,350.604 335.304 C 349.094 344.313,341.320 351.696,331.826 353.138 C 329.198 353.537,68.455 353.517,65.761 353.117 C 56.437 351.734,48.985 344.752,47.133 335.665 C 46.662 333.352,46.569 68.056,47.038 65.363 C 48.577 56.538,55.647 49.480,64.783 47.648 C 67.031 47.197,329.872 47.124,332.455 47.573 M111.787 98.875 C 97.397 100.837,88.433 112.419,90.524 126.348 C 92.379 138.708,102.019 146.326,115.826 146.342 C 130.290 146.360,140.153 138.584,141.849 125.826 C 144.083 109.013,130.004 96.391,111.787 98.875 M248.261 162.034 C 232.467 162.873,220.497 169.667,211.448 182.929 L 210.435 184.413 210.435 174.815 L 210.435 165.217 187.435 165.217 L 164.435 165.218 164.413 234.348 L 164.391 303.478 187.410 303.478 L 210.428 303.478 210.478 262.130 C 210.534 216.279,210.450 219.559,211.653 215.969 C 215.245 205.248,224.425 198.526,235.478 198.523 C 248.936 198.519,256.221 206.324,258.287 222.957 C 258.437 224.167,258.509 235.144,258.556 264.043 L 258.621 303.478 281.658 303.478 L 304.696 303.478 304.694 262.826 C 304.692 212.488,304.675 212.093,302.080 201.612 C 295.534 175.176,275.684 160.578,248.261 162.034 M92.870 234.348 L 92.870 303.478 116.000 303.478 L 139.130 303.478 139.130 234.348 L 139.130 165.217 116.000 165.217 L 92.870 165.217 92.870 234.348 " stroke="none" fill="#fcfcfc" fill-rule="evenodd"></path><path id="path1" d="M64.783 47.648 C 55.647 49.480,48.577 56.538,47.038 65.363 C 46.569 68.056,46.662 333.352,47.133 335.665 C 48.985 344.752,56.437 351.734,65.761 353.117 C 68.455 353.517,329.198 353.537,331.826 353.138 C 341.320 351.696,349.094 344.313,350.604 335.304 C 350.740 334.494,350.780 296.083,350.745 199.652 L 350.696 65.130 350.213 63.478 C 347.811 55.245,340.883 49.040,332.455 47.573 C 329.872 47.124,67.031 47.197,64.783 47.648 M120.545 98.862 C 134.641 100.738,143.664 112.160,141.849 125.826 C 140.153 138.584,130.290 146.360,115.826 146.342 C 102.019 146.326,92.379 138.708,90.524 126.348 C 87.964 109.293,102.047 96.399,120.545 98.862 M255.913 162.094 C 283.279 163.935,300.564 181.977,303.989 212.274 C 304.651 218.125,304.692 221.111,304.694 262.826 L 304.696 303.478 281.658 303.478 L 258.621 303.478 258.556 264.043 C 258.509 235.144,258.437 224.167,258.287 222.957 C 256.522 208.750,251.049 201.199,240.870 198.929 C 228.475 196.165,215.814 203.550,211.653 215.969 C 210.450 219.559,210.534 216.279,210.478 262.130 L 210.428 303.478 187.410 303.478 L 164.391 303.478 164.413 234.348 L 164.435 165.218 187.435 165.217 L 210.435 165.217 210.435 174.815 L 210.435 184.413 211.448 182.929 C 221.874 167.650,236.516 160.789,255.913 162.094 M139.130 234.348 L 139.130 303.478 116.000 303.478 L 92.870 303.478 92.870 234.348 L 92.870 165.217 116.000 165.217 L 139.130 165.217 139.130 234.348 " stroke="none" fill="#04649c" fill-rule="evenodd"></path><path id="path2" d="" stroke="none" fill="#bc100cc" fill-rule="evenodd"></path><path id="path3" d="" stroke="none" fill="#bc100cc" fill-rule="evenodd"></path><path id="path4" d="" stroke="none" fill="#bc100cc" fill-rule="evenodd"></path></g></svg>